{
  "accessors": [
    {
      "bufferView": 2,
      "componentType": 5126,
      "count": 3008,
      "max": [
        0.229649156332016,
        0.229649156332016,
        1.8980233669281006
      ],
      "min": [
        -0.229649156332016,
        -0.229649156332016,
        0.10197639465332031
      ],
      "type": "VEC3"
    },
    {
      "bufferView": 2,
      "byteOffset": 36096,
      "componentType": 5126,
      "count": 3008,
      "max": [
        1.0,
        1.0,
        1.0
      ],
      "min": [
        -1.0,
        -1.0,
        -1.0
      ],
      "type": "VEC3"
    },
    {
      "bufferView": 3,
      "componentType": 5126,
      "count": 3008,
      "max": [
        1.0,
        1.0,
        0.9807856678962708,
        1.0
      ],
      "min": [
        -1.0,
        -1.0,
        -0.9812411069869995,
        1.0
      ],
      "type": "VEC4"
    },
    {
      "bufferView": 1,
      "componentType": 5126,
      "count": 3008,
      "max": [
        1.0,
        1.0
      ],
      "min": [
        0.0,
        0.0
      ],
      "type": "VEC2"
    },
    {
      "bufferView": 1,
      "byteOffset": 24064,
      "componentType": 5126,
      "count": 3008,
      "max": [
        1.0,
        1.0
      ],
      "min": [
        0.0,
        0.0
      ],
      "type": "VEC2"
    },
    {
      "bufferView": 1,
      "byteOffset": 48128,
      "componentType": 5126,
      "count": 3008,
      "max": [
        1.0,
        1.0
      ],
      "min": [
        0.0,
        0.0
      ],
      "type": "VEC2"
    },
    {
      "bufferView": 0,
      "componentType": 5125,
      "count": 7680,
      "type": "SCALAR"
    },
    {
      "bufferView": 2,
      "byteOffset": 72192,
      "componentType": 5126,
      "count": 8992,
      "max": [
        0.2627362012863159,
        0.25805944204330444,
        1.1585443019866943
      ],
      "min": [
        -0.26265957951545715,
        -0.25805944204330444,
        0.9015312194824219
      ],
      "type": "VEC3"
    },
    {
      "bufferView": 2,
      "byteOffset": 180096,
      "componentType": 5126,
      "count": 8992,
      "max": [
        0.9998756051063538,
        0.9999107718467712,
        0.9988662600517273
      ],
      "min": [
        -0.9995597004890442,
        -0.9999107718467712,
        -0.9988606572151184
      ],
      "type": "VEC3"
    },
    {
      "bufferView": 3,
      "byteOffset": 48128,
      "componentType": 5126,
      "count": 8992,
      "max": [
        0.9999905824661255,
        0.9999935030937195,
        0.9999996423721313,
        1.0
      ],
      "min": [
        -0.9999966621398926,
        -1.0,
        -0.9999997019767761,
        -1.0
      ],
      "type": "VEC4"
    },
    {
      "bufferView": 1,
      "byteOffset": 72192,
      "componentType": 5126,
      "count": 8992,
      "max": [
        1.0,
        1.0
      ],
      "min": [
        0.0,
        0.009999990463256836
      ],
      "type": "VEC2"
    },
    {
      "bufferView": 1,
      "byteOffset": 144128,
      "componentType": 5126,
      "count": 8992,
      "max": [
        1.0,
        1.0
      ],
      "min": [
        0.0,
        0.009999990463256836
      ],
      "type": "VEC2"
    },
    {
      "bufferView": 1,
      "byteOffset": 216064,
      "componentType": 5126,
      "count": 8992,
      "max": [
        1.0,
        1.0
      ],
      "min": [
        0.0,
        0.009999990463256836
      ],
      "type": "VEC2"
    },
    {
      "bufferView": 0,
      "byteOffset": 30720,
      "componentType": 5125,
      "count": 26400,
      "type": "SCALAR"
    },
    {
      "bufferView": 2,
      "byteOffset": 288000,
      "componentType": 5126,
      "count": 3848,
      "max": [
        0.24081306159496307,
        0.24081306159496307,
        2.0
      ],
      "min": [
        -0.24081306159496307,
        -0.24081306159496307,
        0.0
      ],
      "type": "VEC3"
    },
    {
      "bufferView": 2,
      "byteOffset": 334176,
      "componentType": 5126,
      "count": 3848,
      "max": [
        1.0,
        1.0,
        1.0
      ],
      "min": [
        -1.0,
        -1.0,
        -1.0
      ],
      "type": "VEC3"
    },
    {
      "bufferView": 3,
      "byteOffset": 192000,
      "componentType": 5126,
      "count": 3848,
      "max": [
        1.0,
        1.0,
        1.0,
        1.0
      ],
      "min": [
        -1.0,
        -1.0,
        -1.0,
        -1.0
      ],
      "type": "VEC4"
    },
    {
      "bufferView": 1,
      "byteOffset": 288000,
      "componentType": 5126,
      "count": 3848,
      "max": [
        1.0,
        1.0
      ],
      "min": [
        0.0,
        0.0
      ],
      "type": "VEC2"
    },
    {
      "bufferView": 1,
      "byteOffset": 318784,
      "componentType": 5126,
      "count": 3848,
      "max": [
        1.0,
        1.0
      ],
      "min": [
        0.0,
        0.0
      ],
      "type": "VEC2"
    },
    {
      "bufferView": 1,
      "byteOffset": 349568,
      "componentType": 5126,
      "count": 3848,
      "max": [
        1.0,
        1.0
      ],
      "min": [
        0.0,
        0.0
      ],
      "type": "VEC2"
    },
    {
      "bufferView": 0,
      "byteOffset": 136320,
      "componentType": 5125,
      "count": 14016,
      "type": "SCALAR"
    },
    {
      "bufferView": 2,
      "byteOffset": 380352,
      "componentType": 5126,
      "count": 11520,
      "max": [
        0.24499645829200745,
        0.24498148262500763,
        1.9001078605651855
      ],
      "min": [
        -0.24499645829200745,
        -0.24498148262500763,
        0.09989187121391296
      ],
      "type": "VEC3"
    },
    {
      "bufferView": 2,
      "byteOffset": 518592,
      "componentType": 5126,
      "count": 11520,
      "max": [
        1.0,
        1.0,
        0.9999997019767761
      ],
      "min": [
        -1.0,
        -1.0,
        -0.9999997019767761
      ],
      "type": "VEC3"
    },
    {
      "bufferView": 3,
      "byteOffset": 253568,
      "componentType": 5126,
      "count": 11520,
      "max": [
        1.0,
        1.0,
        1.0,
        1.0
      ],
      "min": [
        -1.0,
        -1.0,
        -1.0,
        1.0
      ],
      "type": "VEC4"
    },
    {
      "bufferView": 1,
      "byteOffset": 380352,
      "componentType": 5126,
      "count": 11520,
      "max": [
        1.0,
        1.0
      ],
      "min": [
        0.0,
        0.0
      ],
      "type": "VEC2"
    },
    {
      "bufferView": 1,
      "byteOffset": 472512,
      "componentType": 5126,
      "count": 11520,
      "max": [
        1.0,
        1.0
      ],
      "min": [
        0.0,
        0.0
      ],
      "type": "VEC2"
    },
    {
      "bufferView": 0,
      "byteOffset": 192384,
      "componentType": 5125,
      "count": 17376,
      "type": "SCALAR"
    },
    {
      "bufferView": 2,
      "byteOffset": 656832,
      "componentType": 5126,
      "count": 16124,
      "max": [
        0.2187005579471588,
        0.2187005579471588,
        1.9800000190734863
      ],
      "min": [
        -0.2187005579471588,
        -0.2187005579471588,
        0.019999980926513672
      ],
      "type": "VEC3"
    },
    {
      "bufferView": 2,
      "byteOffset": 850320,
      "componentType": 5126,
      "count": 16124,
      "max": [
        1.0,
        1.0,
        1.0
      ],
      "min": [
        -1.0,
        -1.0,
        -1.0
      ],
      "type": "VEC3"
    },
    {
      "bufferView": 3,
      "byteOffset": 437888,
      "componentType": 5126,
      "count": 16124,
      "max": [
        0.9999945759773254,
        0.9999997615814209,
        0.9985188245773315,
        1.0
      ],
      "min": [
        -0.9999945759773254,
        -0.9999997615814209,
        -0.9985193014144897,
        -1.0
      ],
      "type": "VEC4"
    },
    {
      "bufferView": 1,
      "byteOffset": 564672,
      "componentType": 5126,
      "count": 16124,
      "max": [
        1.0,
        1.0
      ],
      "min": [
        0.0,
        0.0
      ],
      "type": "VEC2"
    },
    {
      "bufferView": 1,
      "byteOffset": 693664,
      "componentType": 5126,
      "count": 16124,
      "max": [
        1.0,
        1.0
      ],
      "min": [
        0.0,
        0.0
      ],
      "type": "VEC2"
    },
    {
      "bufferView": 1,
      "byteOffset": 822656,
      "componentType": 5126,
      "count": 16124,
      "max": [
        1.0,
        1.0
      ],
      "min": [
        0.0,
        0.0
      ],
      "type": "VEC2"
    },
    {
      "bufferView": 0,
      "byteOffset": 261888,
      "componentType": 5125,
      "count": 49776,
      "type": "SCALAR"
    }
  ],
  "asset": {
    "extras": {
      "author": "Random_CGI (https://sketchfab.com/Random_CGI)",
      "license": "CC-BY-4.0 (http://creativecommons.org/licenses/by/4.0/)",
      "source": "https://sketchfab.com/3d-models/sci-fi-pipes-armored-99ad1e9fd3a349e68011e47a010195ed",
      "title": "Sci-Fi Pipes Armored"
    },
    "generator": "Sketchfab-15.65.0",
    "version": "2.0"
  },
  "bufferViews": [
    {
      "buffer": 0,
      "byteLength": 460992,
      "name": "floatBufferViews",
      "target": 34963
    },
    {
      "buffer": 0,
      "byteLength": 951648,
      "byteOffset": 460992,
      "byteStride": 8,
      "name": "floatBufferViews",
      "target": 34962
    },
    {
      "buffer": 0,
      "byteLength": 1043808,
      "byteOffset": 1412640,
      "byteStride": 12,
      "name": "floatBufferViews",
      "target": 34962
    },
    {
      "buffer": 0,
      "byteLength": 695872,
      "byteOffset": 2456448,
      "byteStride": 16,
      "name": "floatBufferViews",
      "target": 34962
    }
  ],
  "buffers": [
    {
      "byteLength": 3152320,
      "uri": "scene.bin"
    }
  ],
  "images": [
    {
      "uri": "textures/Electronics.001_baseColor.png"
    },
    {
      "uri": "textures/Electronics.001_metallicRoughness.png"
    },
    {
      "uri": "textures/Electronics.001_normal.png"
    },
    {
      "uri": "textures/Wires.001_baseColor.png"
    },
    {
      "uri": "textures/Wires.001_metallicRoughness.png"
    },
    {
      "uri": "textures/Wires.001_normal.png"
    },
    {
      "uri": "textures/Pipe.001_baseColor.png"
    },
    {
      "uri": "textures/Pipe.001_metallicRoughness.png"
    },
    {
      "uri": "textures/Pipe.001_normal.png"
    },
    {
      "uri": "textures/Shield.001_baseColor.png"
    },
    {
      "uri": "textures/Shield.001_metallicRoughness.png"
    },
    {
      "uri": "textures/Shield.001_normal.png"
    },
    {
      "uri": "textures/SmallPipes_baseColor.png"
    },
    {
      "uri": "textures/SmallPipes_metallicRoughness.png"
    },
    {
      "uri": "textures/SmallPipes_normal.png"
    }
  ],
  "materials": [
    {
      "doubleSided": true,
      "name": "Electronics.001",
      "normalTexture": {
        "index": 2
      },
      "pbrMetallicRoughness": {
        "baseColorTexture": {
          "index": 0
        },
        "metallicRoughnessTexture": {
          "index": 1
        }
      }
    },
    {
      "doubleSided": true,
      "name": "Wires.001",
      "normalTexture": {
        "index": 5
      },
      "pbrMetallicRoughness": {
        "baseColorTexture": {
          "index": 3
        },
        "metallicRoughnessTexture": {
          "index": 4
        }
      }
    },
    {
      "doubleSided": true,
      "name": "Pipe.001",
      "normalTexture": {
        "index": 8
      },
      "pbrMetallicRoughness": {
        "baseColorTexture": {
          "index": 6
        },
        "metallicRoughnessTexture": {
          "index": 7
        }
      }
    },
    {
      "doubleSided": true,
      "name": "Shield.001",
      "normalTexture": {
        "index": 11
      },
      "pbrMetallicRoughness": {
        "baseColorTexture": {
          "index": 9
        },
        "metallicRoughnessTexture": {
          "index": 10
        }
      }
    },
    {
      "doubleSided": true,
      "name": "SmallPipes",
      "normalTexture": {
        "index": 14
      },
      "pbrMetallicRoughness": {
        "baseColorTexture": {
          "index": 12
        },
        "metallicRoughnessTexture": {
          "index": 13
        }
      }
    }
  ],
  "meshes": [
    {
      "name": "Armored_Pipe_Electronics.001_0",
      "primitives": [
        {
          "attributes": {
            "NORMAL": 1,
            "POSITION": 0,
            "TANGENT": 2,
            "TEXCOORD_0": 3,
            "TEXCOORD_1": 4,
            "TEXCOORD_2": 5
          },
          "indices": 6,
          "material": 0,
          "mode": 4
        }
      ]
    },
    {
      "name": "Armored_Pipe_Wires.001_0",
      "primitives": [
        {
          "attributes": {
            "NORMAL": 8,
            "POSITION": 7,
            "TANGENT": 9,
            "TEXCOORD_0": 10,
            "TEXCOORD_1": 11,
            "TEXCOORD_2": 12
          },
          "indices": 13,
          "material": 1,
          "mode": 4
        }
      ]
    },
    {
      "name": "Armored_Pipe_Pipe.001_0",
      "primitives": [
        {
          "attributes": {
            "NORMAL": 15,
            "POSITION": 14,
            "TANGENT": 16,
            "TEXCOORD_0": 17,
            "TEXCOORD_1": 18,
            "TEXCOORD_2": 19
          },
          "indices": 20,
          "material": 2,
          "mode": 4
        }
      ]
    },
    {
      "name": "Armored_Pipe_Shield.001_0",
      "primitives": [
        {
          "attributes": {
            "NORMAL": 22,
            "POSITION": 21,
            "TANGENT": 23,
            "TEXCOORD_0": 24,
            "TEXCOORD_1": 25
          },
          "indices": 26,
          "material": 3,
          "mode": 4
        }
      ]
    },
    {
      "name": "Armored_Pipe_SmallPipes_0",
      "primitives": [
        {
          "attributes": {
            "NORMAL": 28,
            "POSITION": 27,
            "TANGENT": 29,
            "TEXCOORD_0": 30,
            "TEXCOORD_1": 31,
            "TEXCOORD_2": 32
          },
          "indices": 33,
          "material": 4,
          "mode": 4
        }
      ]
    }
  ],
  "nodes": [
    {
      "children": [
        1
      ],
      "matrix": [
        1.0,
        -2.2204460492503123e-16,
        -2.8327693431939995e-16,
        0.0,
        -2.832769343193999e-16,
        1.1714553540195251e-15,
        -1.0,
        0.0,
        2.220446049250313e-16,
        1.0,
        1.1714553540195251e-15,
        0.0,
        0.0,
        0.0,
        0.0,
        1.0
      ],
      "name": "Sketchfab_model"
    },
    {
      "children": [
        2
      ],
      "matrix": [
        0.009999999776482582,
        0.0,
        0.0,
        0.0,
        0.0,
        0.0,
        0.009999999776482582,
        0.0,
        0.0,
        -0.009999999776482582,
        0.0,
        0.0,
        0.0,
        0.0,
        0.0,
        1.0
      ],
      "name": "Armored_Pipe.fbx"
    },
    {
      "children": [
        3
      ],
      "name": "RootNode"
    },
    {
      "children": [
        4,
        5,
        6,
        7,
        8
      ],
      "matrix": [
        100.0,
        0.0,
        0.0,
        0.0,
        -0.0,
        -1.629206793918314e-05,
        -99.99999999999868,
        0.0,
        0.0,
        99.99999999999868,
        -1.629206793918314e-05,
        0.0,
        -65.0,
        0.0,
        0.0,
        1.0
      ],
      "name": "Armored_Pipe"
    },
    {
      "mesh": 0,
      "name": "Armored_Pipe_Electronics.001_0"
    },
    {
      "mesh": 1,
      "name": "Armored_Pipe_Wires.001_0"
    },
    {
      "mesh": 2,
      "name": "Armored_Pipe_Pipe.001_0"
    },
    {
      "mesh": 3,
      "name": "Armored_Pipe_Shield.001_0"
    },
    {
      "mesh": 4,
      "name": "Armored_Pipe_SmallPipes_0"
    }
  ],
  "samplers": [
    {
      "magFilter": 9729,
      "minFilter": 9987,
      "wrapS": 10497,
      "wrapT": 10497
    }
  ],
  "scene": 0,
  "scenes": [
    {
      "name": "Sketchfab_Scene",
      "nodes": [
        0
      ]
    }
  ],
  "textures": [
    {
      "sampler": 0,
      "source": 0
    },
    {
      "sampler": 0,
      "source": 1
    },
    {
      "sampler": 0,
      "source": 2
    },
    {
      "sampler": 0,
      "source": 3
    },
    {
      "sampler": 0,
      "source": 4
    },
    {
      "sampler": 0,
      "source": 5
    },
    {
      "sampler": 0,
      "source": 6
    },
    {
      "sampler": 0,
      "source": 7
    },
    {
      "sampler": 0,
      "source": 8
    },
    {
      "sampler": 0,
      "source": 9
    },
    {
      "sampler": 0,
      "source": 10
    },
    {
      "sampler": 0,
      "source": 11
    },
    {
      "sampler": 0,
      "source": 12
    },
    {
      "sampler": 0,
      "source": 13
    },
    {
      "sampler": 0,
      "source": 14
    }
  ]
}
